<mxfile host="app.diagrams.net" modified="2024-06-11T16:28:23.352Z" agent="Mozilla/5.0 (Windows NT 10.0; Win64; x64) AppleWebKit/537.36 (KHTML, like Gecko) Chrome/125.0.0.0 Safari/537.36" version="24.5.3" etag="UlTZQrWrGqHQ83xReaQC" type="github">
  <diagram name="Page-1" id="0-rngvYoP3va79hoBd87">
    <mxGraphModel>
      <root>
        <mxCell id="0" />
        <mxCell id="1" parent="0" />
      </root>
    </mxGraphModel>
  </diagram>
</mxfile>
